<?xml version="1.0" encoding="UTF-8" standalone="no"?>
<!DOCTYPE svg PUBLIC "-//W3C//DTD SVG 1.1//EN" "http://www.w3.org/Graphics/SVG/1.1/DTD/svg11.dtd">
<svg width="100%" height="100%" viewBox="0 0 90 80" version="1.1" xmlns="http://www.w3.org/2000/svg" xmlns:xlink="http://www.w3.org/1999/xlink" xml:space="preserve" xmlns:serif="http://www.serif.com/" style="fill-rule:evenodd;clip-rule:evenodd;stroke-linejoin:round;stroke-miterlimit:2;">
    <g transform="matrix(1,0,0,1,-5,-10)">
        <g>
            <path d="M92.5,10L60,10C55.916,10 52.282,11.969 50,15.008C47.718,11.969 44.084,10 40,10L7.5,10C6.119,10 5,11.119 5,12.5L5,77.5C5,78.881 6.119,80 7.5,80L40,80C44.136,80 47.5,83.364 47.5,87.5C47.5,88.881 48.619,90 50,90C51.381,90 52.5,88.881 52.5,87.5C52.5,83.364 55.864,80 60,80L92.5,80C93.881,80 95,78.881 95,77.5L95,12.5C95,11.119 93.881,10 92.5,10ZM47.5,77.531C45.407,75.952 42.817,75 40,75L10,75L10,15L40,15C44.136,15 47.5,18.364 47.5,22.5L47.5,77.531ZM90,75L60,75C57.183,75 54.593,75.952 52.5,77.531L52.5,22.5C52.5,18.364 55.864,15 60,15L90,15L90,75Z" style="fill:white;fill-rule:nonzero;"/>
            <path d="M40,32.5L17.5,32.5C16.119,32.5 15,33.619 15,35C15,36.381 16.119,37.5 17.5,37.5L40,37.5C41.381,37.5 42.5,36.381 42.5,35C42.5,33.619 41.381,32.5 40,32.5Z" style="fill:white;fill-rule:nonzero;"/>
            <path d="M40,42.5L17.5,42.5C16.119,42.5 15,43.619 15,45C15,46.381 16.119,47.5 17.5,47.5L40,47.5C41.381,47.5 42.5,46.381 42.5,45C42.5,43.619 41.381,42.5 40,42.5Z" style="fill:white;fill-rule:nonzero;"/>
            <path d="M40,52.5L17.5,52.5C16.119,52.5 15,53.619 15,55C15,56.381 16.119,57.5 17.5,57.5L40,57.5C41.381,57.5 42.5,56.381 42.5,55C42.5,53.619 41.381,52.5 40,52.5Z" style="fill:white;fill-rule:nonzero;"/>
            <path d="M40,62.5L17.5,62.5C16.119,62.5 15,63.619 15,65C15,66.381 16.119,67.5 17.5,67.5L40,67.5C41.381,67.5 42.5,66.381 42.5,65C42.5,63.619 41.381,62.5 40,62.5Z" style="fill:white;fill-rule:nonzero;"/>
            <path d="M82.5,32.5L60,32.5C58.619,32.5 57.5,33.619 57.5,35C57.5,36.381 58.619,37.5 60,37.5L82.5,37.5C83.881,37.5 85,36.381 85,35C85,33.619 83.881,32.5 82.5,32.5Z" style="fill:white;fill-rule:nonzero;"/>
            <path d="M82.5,42.5L60,42.5C58.619,42.5 57.5,43.619 57.5,45C57.5,46.381 58.619,47.5 60,47.5L82.5,47.5C83.881,47.5 85,46.381 85,45C85,43.619 83.881,42.5 82.5,42.5Z" style="fill:white;fill-rule:nonzero;"/>
            <path d="M82.5,52.5L60,52.5C58.619,52.5 57.5,53.619 57.5,55C57.5,56.381 58.619,57.5 60,57.5L82.5,57.5C83.881,57.5 85,56.381 85,55C85,53.619 83.881,52.5 82.5,52.5Z" style="fill:white;fill-rule:nonzero;"/>
            <path d="M82.5,62.5L60,62.5C58.619,62.5 57.5,63.619 57.5,65C57.5,66.381 58.619,67.5 60,67.5L82.5,67.5C83.881,67.5 85,66.381 85,65C85,63.619 83.881,62.5 82.5,62.5Z" style="fill:white;fill-rule:nonzero;"/>
            <path d="M40,22.5L17.5,22.5C16.119,22.5 15,23.619 15,25C15,26.381 16.119,27.5 17.5,27.5L40,27.5C41.381,27.5 42.5,26.381 42.5,25C42.5,23.619 41.381,22.5 40,22.5Z" style="fill:white;fill-rule:nonzero;"/>
            <path d="M57.5,25C57.5,26.381 58.619,27.5 60,27.5L82.5,27.5C83.881,27.5 85,26.381 85,25C85,23.619 83.881,22.5 82.5,22.5L60,22.5C58.619,22.5 57.5,23.619 57.5,25Z" style="fill:white;fill-rule:nonzero;"/>
        </g>
    </g>
</svg>
